HIERARCHY
ROOT Hips
{
	OFFSET 0.000000 0.000000 0.000000
	CHANNELS 6 Xposition Yposition Zposition Zrotation Yrotation Xrotation 
	JOINT LHipJoint
	{
		OFFSET 0.000000 0.000000 0.000000
		CHANNELS 3 Zrotation Yrotation Xrotation
		JOINT LeftUpLeg
		{
			OFFSET 1.363060 -1.794630 0.839290
			CHANNELS 3 Zrotation Yrotation Xrotation
			JOINT LeftLeg
			{
				OFFSET 2.448110 -6.726130 0.000000
				CHANNELS 3 Zrotation Yrotation Xrotation
				JOINT LeftFoot
				{
					OFFSET 2.562200 -7.039590 0.000000
					CHANNELS 3 Zrotation Yrotation Xrotation
					JOINT LeftToeBase
					{
						OFFSET 0.157640 -0.433110 2.322550
						CHANNELS 3 Zrotation Yrotation Xrotation
						End Site
						{
							OFFSET 0.000000 0.000000 0.000000
						}
					}
				}
			}
		}
	}
	JOINT RHipJoint
	{
		OFFSET 0.000000 0.000000 0.000000
		CHANNELS 3 Zrotation Yrotation Xrotation
		JOINT RightUpLeg
		{
			OFFSET -1.305520 -1.794630 0.839290
			CHANNELS 3 Zrotation Yrotation Xrotation
			JOINT RightLeg
			{
				OFFSET -2.542530 -6.985550 0.000000
				CHANNELS 3 Zrotation Yrotation Xrotation
				JOINT RightFoot
				{
					OFFSET -2.568260 -7.056230 0.000000
					CHANNELS 3 Zrotation Yrotation Xrotation
					JOINT RightToeBase
					{
						OFFSET -0.164730 -0.452590 2.363150
						CHANNELS 3 Zrotation Yrotation Xrotation
						End Site
						{
							OFFSET 0.000000 0.000000 0.000000
						}
					}
				}
			}
		}
	}
	JOINT LowerBack
	{
		OFFSET 0.000000 0.000000 0.000000
		CHANNELS 3 Zrotation Yrotation Xrotation
		JOINT Spine
		{
			OFFSET 0.028270 2.035590 -0.193380
			CHANNELS 3 Zrotation Yrotation Xrotation
			JOINT Spine1
			{
				OFFSET 0.056720 2.048850 -0.042750
				CHANNELS 3 Zrotation Yrotation Xrotation
				JOINT Neck
				{
					OFFSET 0.000000 0.000000 0.000000
					CHANNELS 3 Zrotation Yrotation Xrotation
					JOINT Neck1
					{
						OFFSET -0.054170 1.746240 0.172020
						CHANNELS 3 Zrotation Yrotation Xrotation
						JOINT Head
						{
							OFFSET 0.104070 1.761360 -0.123970
							CHANNELS 3 Zrotation Yrotation Xrotation
							End Site
							{
								OFFSET 0.000000 0.000000 0.000000
							}
						}
					}
				}
				JOINT LeftShoulder
				{
					OFFSET 0.000000 0.000000 0.000000
					CHANNELS 3 Zrotation Yrotation Xrotation
					JOINT LeftArm
					{
						OFFSET 3.362410 1.200890 -0.311210
						CHANNELS 3 Zrotation Yrotation Xrotation
						JOINT LeftForeArm
						{
							OFFSET 4.983000 -0.000000 -0.000000
							CHANNELS 3 Zrotation Yrotation Xrotation
							JOINT LeftHand
							{
								OFFSET 3.483560 -0.000000 -0.000000
								CHANNELS 3 Zrotation Yrotation Xrotation
								JOINT LeftFingerBase
								{
									OFFSET 0.000000 0.000000 0.000000
									CHANNELS 3 Zrotation Yrotation Xrotation
									JOINT LeftHandIndex1
									{
										OFFSET 0.715260 -0.000000 -0.000000
										CHANNELS 3 Zrotation Yrotation Xrotation
										End Site
										{
											OFFSET 0.000000 0.000000 0.000000
										}
									}
								}
								JOINT LThumb
								{
									OFFSET 0.000000 0.000000 0.000000
									CHANNELS 3 Zrotation Yrotation Xrotation
									End Site
									{
										OFFSET 0.000000 0.000000 0.000000
									}
								}
							}
						}
					}
				}
				JOINT RightShoulder
				{
					OFFSET 0.000000 0.000000 0.000000
					CHANNELS 3 Zrotation Yrotation Xrotation
					JOINT RightArm
					{
						OFFSET -3.136600 1.374050 -0.404650
						CHANNELS 3 Zrotation Yrotation Xrotation
						JOINT RightForeArm
						{
							OFFSET -5.241900 -0.000000 -0.000000
							CHANNELS 3 Zrotation Yrotation Xrotation
							JOINT RightHand
							{
								OFFSET -3.444170 -0.000000 -0.000000
								CHANNELS 3 Zrotation Yrotation Xrotation
								JOINT RightFingerBase
								{
									OFFSET 0.000000 0.000000 0.000000
									CHANNELS 3 Zrotation Yrotation Xrotation
									JOINT RightHandIndex1
									{
										OFFSET -0.622530 -0.000000 -0.000000
										CHANNELS 3 Zrotation Yrotation Xrotation
										End Site
										{
											OFFSET 0.000000 0.000000 0.000000
										}
									}
								}
								JOINT RThumb
								{
									OFFSET 0.000000 0.000000 0.000000
									CHANNELS 3 Zrotation Yrotation Xrotation
									End Site
									{
										OFFSET 0.000000 0.000000 0.000000
									}
								}
							}
						}
					}
				}
			}
		}
	}
}
MOTION
Frames: 8
Frame Time: 0.008333
8.748151 18.680253 1.696721 -173.206540 -81.084293 -171.875197 -12.065638 5.946476 0.969184 -4.269232 14.153431 0.179560 0.126418 1.766920 35.374736 2.745826 19.705197 12.990660 6.403000 -0.000000 -33.873000 8.917549 -1.576973 5.451227 7.327723 2.954339 -36.854363 3.490438 -0.364366 11.728498 2.141880 13.383977 13.565923 4.198600 -0.000000 -66.907000 6.466234 -4.802402 -7.824605 1.725795 -5.578321 -3.809564 -1.632265 -5.854412 3.420599 5.480704 -21.098181 -9.847900 0.259045 0.060453 -0.475590 0.000000 0.000000 0.000000 28.913387 15.006743 -3.244131 4.932629 -13.501640 -66.084684 177.973794 -85.040430 179.571805 31.439066 -5.392741 -1.798760 -0.442034 0.895337 -0.000000 0.000000 0.000000 0.000000 0.000000 0.000000 0.000000 0.518871 -20.756286 1.774708 57.777166 -32.914768 -27.973156 3.254344 28.756138 -0.023283 -12.373213 0.065863 -0.019495 0.285450 -0.113936 -0.000000 0.000000 0.000000 0.000000 0.000000 0.000000 0.000000 
8.514625 18.622830 1.643526 -176.116704 -80.295882 -169.446154 -12.084151 6.022927 0.779679 -4.541896 14.627053 0.071973 0.194694 1.984227 38.843546 2.792445 19.909037 12.215090 6.213599 0.000000 -33.719600 8.904746 -1.648258 5.226953 7.997326 2.182697 -36.474872 3.495160 -0.437974 12.166591 2.155741 13.716622 13.714662 4.353700 0.000000 -68.085901 6.190381 -4.705121 -7.463317 1.643946 -5.428032 -3.716326 -1.640831 -5.705885 3.497566 5.241716 -21.377327 -9.889397 0.239709 0.059841 -0.489080 0.000000 0.000000 0.000000 28.973964 15.388398 -3.126905 5.698359 -12.718246 -65.904497 177.868800 -83.717875 179.577745 31.257594 -5.812709 -1.907598 -0.441862 0.895259 -0.000000 0.000000 0.000000 0.000000 0.000000 0.000000 0.000000 0.632997 -20.991083 1.718393 57.648655 -33.894285 -28.864533 3.176436 29.988871 -0.026768 -12.341894 -0.503245 0.043095 0.289198 -0.117030 -0.000000 0.000000 0.000000 0.000000 0.000000 0.000000 0.000000 
8.282464 18.555830 1.590247 -178.412182 -79.535861 -167.603231 -12.099164 6.088219 0.595881 -4.776196 15.043709 -0.120444 0.280744 2.207138 42.343273 2.848917 20.204043 11.405071 6.043200 0.000000 -33.422300 8.908155 -1.725361 5.009756 8.602301 1.488368 -36.130585 3.456547 -0.543307 12.867063 2.146590 13.903710 13.891122 4.466700 -0.000000 -68.749600 5.976531 -4.618278 -7.108842 1.569199 -5.297533 -3.620308 -1.684762 -5.576893 3.584174 5.044738 -21.613967 -9.965894 0.199161 0.058109 -0.512043 0.000000 0.000000 0.000000 28.906870 15.807464 -2.978558 6.488398 -11.914669 -65.647391 177.766301 -82.290831 179.585472 30.914060 -6.193797 -1.993007 -0.440205 0.895016 -0.000000 0.000000 0.000000 0.000000 0.000000 0.000000 0.000000 0.854955 -21.204395 1.646594 57.548455 -34.653737 -29.807371 3.098130 31.057238 -0.029858 -12.444153 -0.893796 0.086588 0.292852 -0.120955 -0.000000 0.000000 0.000000 0.000000 0.000000 0.000000 0.000000 
8.051601 18.479172 1.537033 179.739747 -78.812482 -166.180978 -12.116231 6.144878 0.415261 -4.967942 15.403027 -0.381167 0.383700 2.436041 45.847729 2.919183 20.619225 10.564238 5.898800 0.000001 -33.046101 8.922819 -1.800475 4.804236 9.120599 0.903467 -35.787735 3.379785 -0.668080 13.773625 2.117446 13.955607 14.041180 4.527800 0.000000 -68.877300 5.816560 -4.544893 -6.761103 1.502379 -5.188358 -3.521309 -1.753540 -5.469502 3.682919 4.887433 -21.816259 -10.079586 0.146287 0.056069 -0.545372 0.000000 0.000000 0.000000 28.745195 16.296770 -2.809477 7.233701 -11.164715 -65.317418 177.667707 -80.791027 179.594973 30.379414 -6.506684 -2.043592 -0.436438 0.894711 -0.000000 0.000000 0.000000 0.000000 0.000000 0.000000 0.000000 1.147952 -21.404497 1.563453 57.485428 -35.160457 -30.756622 3.021609 31.924327 -0.032552 -12.683813 -1.109866 0.112282 0.296472 -0.125587 -0.000000 0.000000 0.000000 0.000000 0.000000 0.000000 0.000000 
7.821445 18.392219 1.483544 178.293421 -78.126377 -165.104404 -12.145021 6.196463 0.242574 -5.093725 15.732731 -0.762915 0.502056 2.669699 49.377805 3.000678 21.133949 9.665317 5.758200 0.000000 -32.420500 8.938337 -1.874418 4.637788 9.555673 0.500272 -35.477201 3.272480 -0.802761 14.871531 2.071397 13.850801 14.071585 4.507299 -0.000000 -68.353199 5.721637 -4.483465 -6.457032 1.448603 -5.101256 -3.428691 -1.839353 -5.384434 3.788602 4.748282 -21.968337 -10.219321 0.088822 0.054126 -0.585889 0.000000 0.000000 0.000000 28.469548 16.763625 -2.605028 7.971501 -10.330602 -64.895227 177.578161 -79.233295 179.606071 29.677864 -6.709477 -2.049154 -0.431593 0.893591 -0.000000 0.000000 0.000000 0.000000 0.000000 0.000000 0.000000 1.445791 -21.567965 1.478997 57.519551 -35.427466 -31.802423 2.948166 32.600363 -0.034911 -12.998074 -1.187819 0.123478 0.299655 -0.130977 0.000000 0.000000 0.000000 0.000000 0.000000 0.000000 0.000000 
7.592202 18.294847 1.430017 177.075574 -77.496425 -164.227009 -12.183464 6.243823 0.075462 -5.162733 16.012401 -1.199449 0.637315 2.907247 52.878397 3.096408 21.766426 8.756791 5.638100 -0.000000 -31.799100 8.954933 -1.937642 4.491357 9.903588 0.224671 -35.154894 3.144228 -0.938890 16.132884 2.014776 13.649326 13.878106 4.405100 -0.000001 -67.255800 5.663256 -4.442158 -6.173180 1.404077 -5.039804 -3.337754 -1.931975 -5.325626 3.901871 4.630846 -22.087681 -10.386663 0.034224 0.052975 -0.634271 0.000000 0.000000 0.000000 28.129497 17.259185 -2.384831 8.614918 -9.539757 -64.381511 177.497394 -77.658091 179.618530 28.805444 -6.801566 -2.010600 -0.424785 0.892052 -0.000000 0.000000 0.000000 0.000000 0.000000 0.000000 0.000000 1.729971 -21.713169 1.394745 57.633937 -35.438602 -32.802571 2.879347 33.072948 -0.036890 -13.397068 -1.137894 0.120576 0.302461 -0.136560 0.000000 0.000000 0.000000 0.000000 0.000000 0.000000 0.000000 
7.363568 18.186557 1.376276 176.051374 -76.929330 -163.505899 -12.234810 6.288756 -0.081777 -5.158173 16.253616 -1.704080 0.789270 3.146762 56.349187 3.202145 22.480429 7.838007 5.521500 -0.000000 -31.118800 8.966722 -1.990280 4.372413 10.185315 0.080693 -34.842006 3.005626 -1.071120 17.562360 1.951495 13.356522 13.345033 4.201601 0.000000 -65.558100 5.640020 -4.420956 -5.925733 1.370117 -5.004209 -3.253490 -2.026511 -5.293062 4.016999 4.523974 -22.170594 -10.572209 -0.013228 0.052786 -0.687773 0.000000 0.000000 0.000000 27.721377 17.725960 -2.145795 9.183353 -8.734801 -63.760952 177.428799 -76.090292 179.632050 27.799890 -6.783912 -1.933234 -0.416508 0.889913 -0.000000 0.000000 0.000000 0.000000 0.000000 0.000000 0.000000 1.966004 -21.829368 1.316839 57.854872 -35.219738 -33.763432 2.816169 33.371087 -0.038488 -13.829444 -0.993057 0.105775 0.304548 -0.142097 -0.000000 0.000000 0.000000 0.000000 0.000000 0.000000 0.000000 
7.135475 18.066964 1.322188 175.172202 -76.432379 -162.893137 -12.299308 6.332016 -0.225366 -5.072028 16.457190 -2.272627 0.958118 3.386065 59.779000 3.313502 23.238625 6.917360 5.396900 0.000000 -30.413500 8.970533 -2.031493 4.279091 10.422538 0.043785 -34.555229 2.867021 -1.196433 19.171221 1.884397 12.988613 12.364653 3.887500 -0.000000 -63.279600 5.643141 -4.419496 -5.720186 1.345364 -4.993316 -3.178388 -2.121254 -5.285268 4.128602 4.425105 -22.219753 -10.768668 -0.052103 0.053533 -0.744212 0.000000 0.000000 0.000000 27.250687 18.129084 -1.890916 9.688680 -7.901293 -63.023875 177.374055 -74.554006 179.646283 26.703028 -6.673680 -1.827359 -0.407096 0.887222 -0.000000 0.000000 0.000000 0.000000 0.000000 0.000000 0.000000 2.143396 -21.912828 1.248751 58.188213 -34.798771 -34.654503 2.759900 33.522971 -0.039669 -14.260209 -0.777210 0.080877 0.305715 -0.147281 -0.000000 0.000000 0.000000 0.000000 0.000000 0.000000 0.000000 
